<svg width="150" height="47" viewBox="0 0 150 47" fill="none" xmlns="http://www.w3.org/2000/svg">
<path d="M74.932 15.62C74.3347 16.236 73.6253 17.0387 72.804 18.028C71.9827 18.9987 71.1333 20.0627 70.256 21.22C69.3787 22.3773 68.5107 23.572 67.652 24.804C66.7933 26.036 66.028 27.212 65.356 28.332H75.24V32H59.98V29.396C60.5027 28.444 61.1373 27.3893 61.884 26.232C62.6493 25.056 63.4427 23.88 64.264 22.704C65.0853 21.5093 65.916 20.3613 66.756 19.26C67.6147 18.14 68.408 17.1413 69.136 16.264H60.428V12.596H74.932V15.62ZM90.3418 31.496C89.6325 31.7013 88.7178 31.888 87.5978 32.056C86.4778 32.2427 85.3018 32.336 84.0698 32.336C82.8192 32.336 81.7738 32.168 80.9338 31.832C80.1125 31.496 79.4592 31.0293 78.9738 30.432C78.4885 29.816 78.1432 29.088 77.9378 28.248C77.7325 27.408 77.6298 26.484 77.6298 25.476V17.272H81.8018V24.972C81.8018 26.316 81.9792 27.2867 82.3338 27.884C82.6885 28.4813 83.3512 28.78 84.3218 28.78C84.6205 28.78 84.9378 28.7707 85.2738 28.752C85.6098 28.7147 85.9085 28.6773 86.1698 28.64V17.272H90.3418V31.496ZM93.8381 13.604L98.0101 12.932V17.272H103.022V20.744H98.0101V25.924C98.0101 26.8013 98.1595 27.5013 98.4581 28.024C98.7755 28.5467 99.4008 28.808 100.334 28.808C100.782 28.808 101.239 28.7707 101.706 28.696C102.191 28.6027 102.63 28.4813 103.022 28.332L103.61 31.58C103.106 31.7853 102.546 31.9627 101.93 32.112C101.314 32.2613 100.558 32.336 99.6621 32.336C98.5235 32.336 97.5808 32.1867 96.8341 31.888C96.0875 31.5707 95.4901 31.1413 95.0421 30.6C94.5941 30.04 94.2768 29.368 94.0901 28.584C93.9221 27.8 93.8381 26.932 93.8381 25.98V13.604ZM104.893 24.748C104.893 23.4413 105.089 22.3027 105.481 21.332C105.891 20.3427 106.423 19.5213 107.077 18.868C107.73 18.2147 108.477 17.72 109.317 17.384C110.175 17.048 111.053 16.88 111.949 16.88C114.039 16.88 115.691 17.524 116.905 18.812C118.118 20.0813 118.725 21.9573 118.725 24.44C118.725 24.6827 118.715 24.9533 118.697 25.252C118.678 25.532 118.659 25.784 118.641 26.008H109.177C109.27 26.8667 109.671 27.548 110.381 28.052C111.09 28.556 112.042 28.808 113.237 28.808C114.002 28.808 114.749 28.7427 115.477 28.612C116.223 28.4627 116.83 28.2853 117.297 28.08L117.857 31.468C117.633 31.58 117.334 31.692 116.961 31.804C116.587 31.916 116.167 32.0093 115.701 32.084C115.253 32.1773 114.767 32.252 114.245 32.308C113.722 32.364 113.199 32.392 112.677 32.392C111.351 32.392 110.194 32.196 109.205 31.804C108.234 31.412 107.422 30.88 106.769 30.208C106.134 29.5173 105.658 28.7053 105.341 27.772C105.042 26.8387 104.893 25.8307 104.893 24.748ZM114.693 23.152C114.674 22.7973 114.609 22.452 114.497 22.116C114.403 21.78 114.245 21.4813 114.021 21.22C113.815 20.9587 113.545 20.744 113.209 20.576C112.891 20.408 112.49 20.324 112.005 20.324C111.538 20.324 111.137 20.408 110.801 20.576C110.465 20.7253 110.185 20.9307 109.961 21.192C109.737 21.4533 109.559 21.7613 109.429 22.116C109.317 22.452 109.233 22.7973 109.177 23.152H114.693ZM120.964 24.636C120.964 23.572 121.132 22.5733 121.468 21.64C121.823 20.688 122.327 19.8667 122.98 19.176C123.634 18.4667 124.427 17.9067 125.36 17.496C126.294 17.0853 127.358 16.88 128.552 16.88C129.336 16.88 130.055 16.9547 130.708 17.104C131.362 17.2347 131.996 17.4307 132.612 17.692L131.744 21.024C131.352 20.8747 130.923 20.744 130.456 20.632C129.99 20.52 129.467 20.464 128.888 20.464C127.656 20.464 126.732 20.8467 126.116 21.612C125.519 22.3773 125.22 23.3853 125.22 24.636C125.22 25.9613 125.5 26.988 126.06 27.716C126.639 28.444 127.638 28.808 129.056 28.808C129.56 28.808 130.102 28.7613 130.68 28.668C131.259 28.5747 131.791 28.4253 132.276 28.22L132.864 31.636C132.379 31.8413 131.772 32.0187 131.044 32.168C130.316 32.3173 129.514 32.392 128.636 32.392C127.292 32.392 126.135 32.196 125.164 31.804C124.194 31.3933 123.391 30.8427 122.756 30.152C122.14 29.4613 121.683 28.6493 121.384 27.716C121.104 26.764 120.964 25.7373 120.964 24.636ZM135.384 32V10.944L139.556 10.272V17.328C139.836 17.2347 140.191 17.1507 140.62 17.076C141.068 16.9827 141.498 16.936 141.908 16.936C143.103 16.936 144.092 17.104 144.876 17.44C145.679 17.7573 146.314 18.2147 146.78 18.812C147.266 19.4093 147.602 20.1187 147.788 20.94C147.994 21.7613 148.096 22.676 148.096 23.684V32H143.924V24.188C143.924 22.844 143.747 21.892 143.392 21.332C143.056 20.772 142.422 20.492 141.488 20.492C141.115 20.492 140.76 20.5293 140.424 20.604C140.107 20.66 139.818 20.7253 139.556 20.8V32H135.384Z" fill="white"/>
<path d="M23.5002 47C36.4584 47 47 36.4579 47 23.4997C47 10.5421 36.4584 0 23.5002 0C10.5421 0 0 10.5421 0 23.5003C0 36.4579 10.5421 47 23.5002 47ZM16.8365 16.9003C18.0258 16.9003 18.9933 17.8673 18.9933 19.0566C18.9933 20.2458 18.0258 21.2128 16.8365 21.2128C15.6473 21.2128 14.6798 20.2458 14.6798 19.0566C14.6803 17.8678 15.6473 16.9003 16.8365 16.9003ZM15.5943 7.68322V14.5897C13.6376 15.135 12.1958 16.9286 12.1958 19.0566C12.1958 21.6156 14.278 23.6973 16.8365 23.6973C19.3955 23.6973 21.4777 21.6151 21.4777 19.0566C21.4777 16.9286 20.0359 15.1345 18.0787 14.5897V6.65396C19.789 6.10203 21.6089 5.79701 23.5002 5.79701C23.5836 5.79701 23.6643 5.80832 23.7477 5.80935V24.2384H30.486C31.0312 26.1951 32.8254 27.6369 34.9533 27.6369C37.5124 27.6369 39.5945 25.5547 39.5945 22.9962C39.5945 20.4372 37.5118 18.355 34.9533 18.355C32.8254 18.355 31.0312 19.7968 30.486 21.754H26.2321V6.03002C34.6977 7.35042 41.2035 14.67 41.2035 23.4997C41.2035 25.6431 40.8013 27.6893 40.1002 29.5925H20.4809C19.9356 27.6353 18.142 26.1935 16.014 26.1935C13.455 26.1935 11.3728 28.2757 11.3728 30.8347C11.3728 33.3937 13.455 35.4754 16.014 35.4754C18.142 35.4754 19.9361 34.0336 20.4809 32.077H38.9747C35.9492 37.5129 30.1501 41.203 23.5002 41.203C13.7384 41.203 5.797 33.2616 5.797 23.4997C5.797 16.5819 9.79524 10.5941 15.5943 7.68322ZM32.7966 22.9962C32.7966 21.8069 33.7636 20.8394 34.9533 20.8394C36.1431 20.8394 37.1101 21.8069 37.1101 22.9962C37.1101 24.1854 36.1431 25.1524 34.9533 25.1524C33.7641 25.1529 32.7966 24.1854 32.7966 22.9962ZM18.1703 30.8347C18.1703 32.024 17.2033 32.991 16.014 32.991C14.8248 32.991 13.8573 32.024 13.8573 30.8347C13.8573 29.6455 14.8248 28.678 16.014 28.678C17.2033 28.678 18.1703 29.6455 18.1703 30.8347Z" fill="url(#paint0_linear_2_45)"/>
<defs>
<linearGradient id="paint0_linear_2_45" x1="18.6547" y1="0.378292" x2="29.4077" y2="50.7688" gradientUnits="userSpaceOnUse">
<stop stop-color="#2AD3F8"/>
<stop offset="0.9813" stop-color="#933CFF"/>
</linearGradient>
</defs>
</svg>
